<svg width="276" height="27" viewBox="0 0 276 27" fill="none" xmlns="http://www.w3.org/2000/svg">
<path d="M276 26H0V27H276V26Z" fill="#3F3D56"/>
<path d="M262.77 0.478492C262.785 0.489043 262.8 0.500078 262.816 0.511594C263.002 0.647526 263.271 0.850524 263.601 1.11717C264.26 1.65059 265.161 2.43795 266.123 3.4518C268.049 5.4819 270.209 8.40725 271.184 12.0092C272.158 15.6112 271.768 19.2262 271.128 21.9503C270.809 23.3108 270.428 24.4447 270.127 25.2378C269.977 25.6343 269.847 25.9453 269.755 26.1566C269.747 26.1744 269.739 26.1916 269.732 26.208C269.718 26.1975 269.702 26.1865 269.687 26.1749C269.5 26.039 269.231 25.836 268.901 25.5694C268.242 25.0359 267.341 24.2486 266.379 23.2347C264.453 21.2046 262.293 18.2793 261.318 14.6773C260.344 11.0754 260.734 7.46039 261.374 4.73626C261.693 3.37579 262.074 2.24183 262.375 1.4487C262.525 1.05223 262.655 0.741228 262.748 0.529991C262.755 0.512106 262.763 0.494937 262.77 0.478492Z" fill="#CFFF63" stroke="#333333" stroke-width="0.5"/>
<path d="M263.985 13.1709C269.415 18.4557 270.078 26.5798 270.078 26.5798C270.078 26.5798 261.938 26.1354 256.507 20.8505C251.077 15.5657 250.414 7.44159 250.414 7.44159C250.414 7.44159 258.555 7.88599 263.985 13.1709Z" fill="#3F3D56"/>
</svg>
