<svg width="375" height="147" viewBox="0 0 375 147" fill="none" xmlns="http://www.w3.org/2000/svg">
<path d="M171.326 146.713C156.243 146.725 141.264 144.211 127.011 139.276C107.904 132.671 92.2507 123.561 80.4866 112.198C58.2337 90.7048 39.9897 87.4656 28.6056 88.5322C5.45162 87.8059 0.303145 110.448 0.232166 110.511L-0.258057 109.965C-0.185646 109.9 5.11071 87.1149 28.4895 87.8059C35.8478 87.1083 43.5427 88.3238 51.3611 91.4198C61.111 95.2806 71.0819 102.094 80.9967 111.67C92.6833 122.958 108.246 132.013 127.251 138.582C162.141 150.642 201.464 147.722 235.136 130.571C246.285 124.892 257.304 121.015 267.887 119.05C281.231 116.57 293.887 117.145 305.505 120.759C331.035 128.7 348.473 128.279 358.606 126.528C369.54 124.639 374.5 120.858 374.549 120.82L375 121.399C374.795 121.559 369.844 125.331 358.731 127.251C348.518 129.016 330.955 129.444 305.287 121.46C279.297 113.377 252.975 122.308 235.47 131.225C218.827 139.747 200.653 144.873 182.009 146.303C178.435 146.576 174.874 146.713 171.326 146.713Z" fill="#3F3D56"/>
<path d="M88.4434 118.668L87.9181 118.155C90.3343 115.416 92.1658 112.213 93.3003 108.742C95.0864 103.368 95.9589 94.8805 89.9716 84.9663C83.8458 74.8226 83.5701 66.5836 84.4174 61.4582C85.3395 55.8812 87.6921 52.7551 87.7917 52.6248L88.3751 53.0705C88.3516 53.1011 86.0196 56.2106 85.1347 61.6213C84.3177 66.6166 84.6027 74.656 90.6 84.5868C96.7404 94.7545 95.8308 103.477 93.9866 109.004C91.9883 114.993 88.5874 118.521 88.4434 118.668Z" fill="#3F3D56"/>
<path d="M190.86 144.725L190.334 144.212C192.75 141.473 194.582 138.27 195.716 134.799C197.503 129.425 198.375 120.937 192.387 111.023C186.262 100.88 185.986 92.6405 186.834 87.5151C187.756 81.9381 190.108 78.812 190.208 78.6817L190.791 79.1274C190.768 79.158 188.436 82.2674 187.551 87.6782C186.734 92.6735 187.019 100.713 193.016 110.644C199.157 120.811 198.247 129.534 196.402 135.061C194.404 141.05 191.003 144.578 190.86 144.725Z" fill="#3F3D56"/>
<path d="M292.908 118.301L292.383 117.788C294.799 115.049 296.63 111.846 297.765 108.375C299.551 103.001 300.424 94.5135 294.436 84.5993C288.311 74.4556 288.035 66.2166 288.882 61.0912C289.804 55.5142 292.157 52.3881 292.257 52.2578L292.84 52.7035C292.817 52.7341 290.484 55.8436 289.599 61.2543C288.782 66.2496 289.067 74.289 295.065 84.2198C301.205 94.3875 300.296 103.11 298.451 108.637C296.453 114.626 293.052 118.154 292.908 118.301Z" fill="#3F3D56"/>
<path d="M115.903 1.03226H63.2581V52.6452H115.903V1.03226Z" fill="#F2F2F2"/>
<path d="M115.982 53.2147H63.1217V0.366999H115.982V53.2147ZM63.8559 52.4807H115.247V1.101H63.8559V52.4807Z" fill="#3F3D56"/>
<path d="M106.437 15.7809H74.1342V16.5149H106.437V15.7809Z" fill="#3F3D56"/>
<path d="M106.437 23.8549H74.1342V24.5889H106.437V23.8549Z" fill="#3F3D56"/>
<path d="M106.437 31.9288H74.1342V32.6628H106.437V31.9288Z" fill="#3F3D56"/>
<path d="M218.097 26.8387H165.452V78.4516H218.097V26.8387Z" fill="#F2F2F2"/>
<path d="M218.398 79.2716H165.538V26.4239H218.398V79.2716ZM166.272 78.5376H217.663V27.1579H166.272V78.5376Z" fill="#3F3D56"/>
<path d="M208.119 40.7368H175.816V41.4708H208.119V40.7368Z" fill="#3F3D56"/>
<path d="M208.119 48.8108H175.816V49.5447H208.119V48.8108Z" fill="#3F3D56"/>
<path d="M208.119 56.8847H175.816V57.6187H208.119V56.8847Z" fill="#3F3D56"/>
<path d="M320.29 0H267.645V52.6452H320.29V0Z" fill="#F2F2F2"/>
<path d="M320.446 52.8477H267.587V0H320.446V52.8477ZM268.321 52.1137H319.712V0.733996H268.321V52.1137Z" fill="#3F3D56"/>
<path d="M310.168 15.7809H277.865V16.5149H310.168V15.7809Z" fill="#3F3D56"/>
<path d="M310.168 23.8549H277.865V24.5889H310.168V23.8549Z" fill="#3F3D56"/>
<path d="M310.168 31.9288H277.865V32.6628H310.168V31.9288Z" fill="#3F3D56"/>
</svg>
